<?xml version="1.0" encoding="UTF-8"?>
<svg id="Layer_2" data-name="Layer 2" xmlns="http://www.w3.org/2000/svg" viewBox="0 0 646.1418 682.0057">
  <g id="Layer_1-2" data-name="Layer 1">
    <g id="ZummNy.tif">
      <g>
        <path d="M132.8038,330.55c.1612,43.555-56.0706,43.1239-57.909-.0062l-5.0038.0113-.0031-7.002,4.0117.0119c-.3026-25.863,18.4592-46.1622,41.684-54.6803,23.1455-8.489,53.6913-6.0961,75.1534,6.2188,17.6988,10.1555,29.601,28.2712,32.974,48.4119l87.1649.0871c13.2391-23.5342,50.9188-40.8386,76.8226-30.7745,12.6273,4.9059,19.0305,17.864,13.7086,30.7311h181.7316l-.4357,6.0576-3.011.9815-179.7648-.0303c-2.4669.4863-8.4633,9.6534-11.4884,12.4784-16.4518,15.3635-53.0424,29.4173-72.9295,13.9939-8.6752-6.728-10.6442-16.0352-7.9636-26.4901h-81.8791c2.9723,22.0897-.4019,44.3216-10.9838,63.9167h368.4558c-.0715,2.4274.7582,5.3726-1.4978,6.9909h-188.222c21.3724,18.8635,3.6197,43.0984-15.0622,55.3434l-15.8921,8.5733h220.674v5.9922H149.2795c-16.1004,9.0842-33.088,20.0839-51.2087,24.6834-6.9557,1.7655-23.5955,6.4183-23.1442-4.6674,14.8082-3.8735,30.1261-10.1424,41.9009-20.016h-46.9307v-5.9922h54.4196c19.9125-17.6569,37.3812-39.6137,48.4285-63.9167h-102.8481v-6.9909h106.3429c9.7196-19.6628,14.5541-41.9159,13.4801-63.9167h-56.9159ZM189.7198,323.5591c-3.5388-17.3458-10.3314-33.9256-26.0412-43.3638-22.7947-13.6947-52.0661-7.163-67.6484,14.074-4.2436,5.7836-8.9544,15.5877-4.6648,22.2798,14.08-14.0194,32.7295-11.4531,40.9392,7.01h57.4152ZM344.4912,401.4575h-133.8024c-11.7088,25.744-30.6332,46.9097-52.9218,63.9167h159.764c-21.4952-16.7965-7.8287-40.5805,9.657-53.7587l17.3032-10.158Z"/>
        <path d="M402.4056,536.2818h180.733v5.9922h-184.2279c-13.3837,21.396-45.3517,38.3414-70.6183,32.6799-16.7967-3.7636-24.9366-15.4279-20.7467-32.6799H69.8968v-5.9922h240.1453c10.0685-14.8956,25.2092-26.2908,42.6789-31.2173,25.1445-7.0908,55.7063-1.2343,49.6846,31.2173Z"/>
        <path d="M430.3643,604.1932v10.9857h-34.9484c24.8353,28.9811-16.7133,59.5342-43.0946,65.2566-42.8275,9.2897-62.562-24.4649-29.2688-53.2427,5.3793-4.6497,12.0098-7.5237,17.4446-12.014h-60.91c.45-3.5692-1.3445-8.3512,1.4978-10.9857h149.2795Z"/>
        <rect x="69.8968" y="252.6515" width="513.2419" height="6.9909"/>
        <path d="M321.5251,97.354c.236,1.087,2.1639,3.2738,3.2793,3.7953,1.8185.8503,9.0664-1.7159,7.6955,1.184-.6717,1.4208-22.8462,10.5857-23.9511,9.5041l-.4989-9.9843c-27.8955,25.8288-55.7342-5.357-47.1451-37.1663,5.5853-20.6851,28.3734-37.2122,47.6395-21.7618v-26.4655c0-.315-2.0936-5.1885-2.6682-5.5797-3.1643-2.1539-6.7293,1.9736-9.2941-1.4113C296.6636,8.2485,317.8804-.0294,319.1027,0c.9234.0223,2.4224.9088,2.4224,1.4789v95.875ZM288.2997,42.1599c-17.0051,3.5377-17.6685,36.4402-11.0922,48.5858,6.7269,12.4238,21.1342,17.2086,31.1486,5.4214-.6562-15.0522,7.1876-59.675-20.0564-54.0072Z"/>
        <path d="M470.3053,38.9302v52.4316c0,1.3767,2.271,6.2261,3.4495,7.5355,6.842,7.6022,20.4972.1422,25.3009-6.7437l-.0083-44.5193c-1.0907-4.9224-6.388-5.929-10.7762-5.7118l.0076-2.9924h23.9646v57.4251c0,.2658,2.2255,4.2736,2.6907,4.585,2.762,1.8484,7.6469-2.2983,9.2892,1.8944l-23.3593,8.9577-1.4456-1.6136-.1658-12.3252c-9.2316,11.1624-30.248,21.8849-38.6618,4.2231-2.4052-5.0488-3.0058-14.7893-3.3074-20.6608-.4358-8.483,1.7486-28.2663-.1655-34.7889-1.1108-3.7855-7.3013-5.3868-10.7844-4.7042l.0072-2.9927h23.9646Z"/>
        <path d="M635.1879,100.7174c3.3005,2.0629,7.3682-2.6768,9.3738-4.8528,2.356-.9689,1.5348,2.8262.9632,3.9652-.4403.8775-7.4184,7.7478-8.5133,8.4632-8.5267,5.5712-15.6463,1.4991-15.9398-8.4413-10.179,8.882-30.3682,18.7008-37.429.9928-5.3637-13.4519,2.8265-21.9732,13.8061-28.127,5.1102-2.8642,20.0302-7.1467,22.6402-9.3146,3.0024-2.4938.2291-15.364-2.5549-18.427-4.2412-4.6662-15.0004-4.512-18.6389,1.2165-2.9029,4.5703-.6604,5.4066-.9874,8.9859-1.0431,11.4189-17.8031,8.5941-11.5074-6.4932,6.108-14.6374,41.4049-16.2476,46.2114-.813,2.625,8.4292.1543,51.3317,2.5759,52.8453ZM621.0826,67.8924c-10.0491,3.2695-26.0596,8.6232-26.0459,21.472.0177,16.5041,17.4391,14.1362,26.0459,4.9935v-26.4655Z"/>
        <path d="M401.397,95.8561c-.5307,12.83-24.3949,23.6489-23.9595,3.9994-.8017-.9875-11.893,8.0171-13.6369,8.8216-15.4884,7.145-27.7835-4.0222-25.2348-20.2483,2.0623-13.13,27.6179-21.1451,38.2581-25.4252,2.3113-11.6605-3.0295-25.0478-17.4078-20.63-10.5948,3.2553-1.2856,18.9104-11.4178,19.6179-10.1124.7061-7.8884-11.3831-3.0397-17.1012,8.6263-10.1731,35.363-11.2816,42.3206.6801,4.5466,7.8167,1.3223,34.1231,2.1052,44.8332.8475,11.5927,2.5705,14.0298,12.0127,5.4524ZM377.4425,67.8924c-12.1419,2.9953-33.0964,12.5692-24.8378,28.3391,5.8104,11.095,17.4626,3.0924,24.8378-1.3743v-26.9648Z"/>
        <path d="M158.5212,37.1949c47.9397-6.2827,50.0884,74.8038,2.7429,74.4323-41.5695-.3262-43.6221-69.0749-2.7429-74.4323ZM171.4012,46.2683c-8.0224-7.0643-19.4639-5.2426-24.8253,3.9396-9.2526,15.8466-2.3169,60.5451,22.4475,55.4033,15.442-3.2062,14.0829-31.2594,11.2175-42.7195-1.2685-5.0733-4.9363-13.1861-8.8398-16.6234Z"/>
        <path d="M114.5937,58.6677c-20.1278,8.094-7.9338-17.1308-25.1775-16.7701-16.4937.345-19.9338,22.7816-17.2841,35.2436,5.9375,27.9248,32.9263,30.3871,44.2096,4.7413,1.6198-.1971,1.6514-.13,1.4596,1.4479-3.0618,25.1887-32.7897,38.7662-50.4128,17.5309-18.8144-22.6708-5.9486-65.7352,26.9438-63.9231,10.2791.5663,26.01,9.6194,20.2613,21.7294Z"/>
        <path d="M0,85.869l3.0831.5957c.5948,12.9188,20.4053,28.1319,30.8882,16.9022,13.7078-14.6844-18.2673-24.8326-26.0072-30.9563-16.0499-12.6984-5.4681-35.8794,13.4986-35.5549,4.3324.0741,14.81,4.2961,17.5071,2.5631,1.1542-.7416.4352-3.5183,3.9667-2.4861v23.9688l-2.9784.0003c-.9361-6.1468-4.7523-15.2032-10.7685-17.7101-7.2288-3.0123-20.2543-1.7716-20.2602,8.2214-.0099,16.6145,42.2568,15.5531,38.9109,41.8599-1.4379,11.3051-13.6629,18.507-24.2675,18.4527-6.9523-.0356-15.2551-5.5258-21.2359-1.0184l-2.3369-1.369v-23.4694Z"/>
        <path d="M427.3687,15.9601v22.9701h15.9764v5.9922h-15.9764v50.4342c0,5.6711,6.779,7.6015,11.6923,4.7014,3.0475-1.7988,2.6725-4.8677,6.2764-4.1966-2.0331,11.2598-19.4811,20.4466-27.4329,9.9597-7.235-9.5414-1.3446-58.7275-3.5116-60.9039-21.4469.4349-5.6026-4.45.5169-10.9579,1.4623-1.5551,3.4901-4.4575,4.6641-6.3207,2.2839-3.6246,3.4744-10.6311,7.7948-11.6785Z"/>
        <path d="M549.1888,36.9328v14.9805c6.1228-6.3536,12.4559-18.8299,23.2386-13.7475,8.9387,4.2132,4.3748,16.7233-3.9706,14.0059-3.4632-1.1277-6.8573-6.1985-10.5993-4.1557-2.3351,1.2748-8.1562,9.9084-8.6237,12.4312-1.0942,5.9047-.504,34.0295,1.202,39.6545,1.5945,5.2575,5.0442,5.1787,9.393,6.6314,1.5648.5227,2.8413-.8771,2.3409,2.106h-35.9469c-.465-2.7751.5673-1.686,2.1874-2.2589,3.7428-1.3235,7.4493-1.3601,8.5862-6.4402,1.4923-6.6683.8798-34.8285.2458-42.7697-.2528-3.1668-.9814-6.3223-2.2616-9.2149-2.3811-2.471-9.896,1.0338-9.7364-1.7349.0746-1.2936,20.757-9.7952,23.9447-9.4875Z"/>
        <path d="M226.6652,36.9328v14.9805c6.1228-6.3536,12.4559-18.8299,23.2386-13.7475,8.9387,4.2132,4.3748,16.7233-3.9706,14.0059-3.4633-1.1277-6.8573-6.1985-10.5993-4.1557-2.3351,1.2748-8.1562,9.9084-8.6237,12.4312-1.0942,5.9047-.504,34.0296,1.202,39.6545,1.5945,5.2575,5.0442,5.1787,9.393,6.6314,1.5648.5227,2.8413-.8771,2.3409,2.106h-35.9469c-.5037-2.9868.7873-1.5808,2.3394-2.108,4.01-1.362,6.9932-1.7104,8.4338-6.5916-.5179-14.1196,1.4133-29.8424.2525-43.7733-.1625-1.9496-1.0481-6.9676-2.274-8.2027-2.4423-2.4606-9.8879,1.0082-9.7303-1.7431.0741-1.2936,20.8113-9.6725,23.9447-9.4875Z"/>
        <path d="M260.3422,286.8387c21.5724-4.4734,24.2143,24.9601,6.505,27.5152-18.5056,2.67-21.8182-24.3398-6.505-27.5152Z"/>
        <path d="M263.3991,356.7246c17.9163-1.3868,20.4202,25.1884,4.6444,27.686-22.1592,3.5081-22.7257-26.2865-4.6444-27.686Z"/>
      </g>
    </g>
  </g>
</svg>